<svg xmlns="http://www.w3.org/2000/svg" viewBox="0 0 113.4 113.4"><defs><style>.cls-1{fill:#1e1e1c;}</style></defs><g id="Layer_2" data-name="Layer 2"><g id="Layer_1-2" data-name="Layer 1"><polygon class="cls-1" points="18.6 113.4 23.8 113.4 28.7 109.9 33.4 113.4 38.6 113.4 28.7 106.1 18.6 113.4"/><polygon class="cls-1" points="28.7 93.7 55 112.9 56.7 110.4 28.7 89.9 0 110.4 1.8 112.9 28.7 93.7"/><polygon class="cls-1" points="28.7 77.5 55 96.7 56.7 94.2 28.7 73.7 0 94.2 1.8 96.7 28.7 77.5"/><polygon class="cls-1" points="28.7 61.3 55 80.5 56.7 78 28.7 57.5 0 78 1.8 80.5 28.7 61.3"/><polygon class="cls-1" points="28.7 45.1 55 64.3 56.7 61.8 28.7 41.3 0 61.8 1.8 64.3 28.7 45.1"/><polygon class="cls-1" points="28.7 28.9 55 48.1 56.7 45.6 28.7 25.1 0 45.6 1.8 48.1 28.7 28.9"/><polygon class="cls-1" points="28.7 12.7 55 31.9 56.7 29.4 28.7 8.9 0 29.4 1.8 31.9 28.7 12.7"/><polygon class="cls-1" points="56.7 13.2 38.6 0 33.5 0 55 15.7 56.7 13.2"/><polygon class="cls-1" points="23.8 0 18.6 0 0 13.2 1.8 15.7 23.8 0"/><polygon class="cls-1" points="100.8 0 95.6 0 84.8 7.7 74.2 0 69 0 84.8 11.5 100.8 0"/><polygon class="cls-1" points="84.8 23.9 58.5 4.7 56.7 7.2 84.8 27.7 113.4 7.2 111.7 4.7 84.8 23.9"/><polygon class="cls-1" points="84.8 40.1 58.5 20.9 56.7 23.4 84.8 43.9 113.4 23.4 111.7 20.9 84.8 40.1"/><polygon class="cls-1" points="84.8 56.3 58.5 37.1 56.7 39.6 84.8 60.1 113.4 39.6 111.7 37.1 84.8 56.3"/><polygon class="cls-1" points="84.8 72.5 58.5 53.3 56.7 55.8 84.8 76.3 113.4 55.8 111.7 53.3 84.8 72.5"/><polygon class="cls-1" points="84.8 88.7 58.5 69.5 56.7 72 84.8 92.5 113.4 72 111.7 69.5 84.8 88.7"/><polygon class="cls-1" points="84.8 104.9 58.5 85.7 56.7 88.2 84.8 108.7 113.4 88.2 111.7 85.7 84.8 104.9"/><polygon class="cls-1" points="56.7 104.4 69 113.4 74.2 113.4 58.5 101.9 56.7 104.4"/><polygon class="cls-1" points="111.7 101.9 95.6 113.4 100.9 113.4 113.4 104.4 111.7 101.9"/></g></g></svg>