<svg xmlns="http://www.w3.org/2000/svg" viewBox="0 0 113.4 113.4"><defs><style>.cls-1{fill:#1e1e1c;}</style></defs><g id="Layer_2" data-name="Layer 2"><g id="Layer_1-2" data-name="Layer 1"><polygon class="cls-1" points="0 18.6 0 23.8 3.5 28.6 0 33.4 0 38.5 7.2 28.7 0 18.6"/><polygon class="cls-1" points="19.7 28.6 0.4 54.9 2.9 56.7 23.4 28.7 2.9 0 0.4 1.8 19.7 28.6"/><polygon class="cls-1" points="35.9 28.6 16.6 54.9 19.1 56.7 39.6 28.7 19.1 0 16.6 1.8 35.9 28.6"/><polygon class="cls-1" points="52.1 28.6 32.8 54.9 35.3 56.7 55.8 28.7 35.3 0 32.8 1.8 52.1 28.6"/><polygon class="cls-1" points="68.3 28.6 49 54.9 51.5 56.7 72 28.7 51.5 0 49 1.8 68.3 28.6"/><polygon class="cls-1" points="84.5 28.6 65.2 54.9 67.7 56.7 88.3 28.7 67.7 0 65.2 1.8 84.5 28.6"/><polygon class="cls-1" points="100.7 28.6 81.5 54.9 83.9 56.7 104.5 28.7 83.9 0 81.4 1.8 100.7 28.6"/><polygon class="cls-1" points="100.1 56.7 113.4 38.6 113.4 33.4 97.7 54.9 100.1 56.7"/><polygon class="cls-1" points="113.4 23.8 113.4 18.5 100.1 0 97.6 1.8 113.4 23.8"/><polygon class="cls-1" points="113.4 100.8 113.4 95.6 105.6 84.8 113.4 74.2 113.4 69 101.9 84.7 113.4 100.8"/><polygon class="cls-1" points="89.4 84.8 108.7 58.5 106.2 56.7 85.7 84.7 106.2 113.4 108.7 111.6 89.4 84.8"/><polygon class="cls-1" points="73.2 84.8 92.5 58.5 90 56.7 69.5 84.7 90 113.4 92.5 111.6 73.2 84.8"/><polygon class="cls-1" points="57 84.8 76.3 58.5 73.8 56.7 53.3 84.7 73.8 113.4 76.3 111.6 57 84.8"/><polygon class="cls-1" points="40.8 84.8 60.1 58.5 57.6 56.7 37.1 84.7 57.6 113.4 60.1 111.6 40.8 84.8"/><polygon class="cls-1" points="24.6 84.8 43.9 58.5 41.4 56.7 20.9 84.7 41.4 113.4 43.9 111.6 24.6 84.8"/><polygon class="cls-1" points="8.4 84.8 27.7 58.5 25.2 56.7 4.7 84.7 25.2 113.4 27.7 111.6 8.4 84.8"/><polygon class="cls-1" points="9 56.7 0 69 0 74.1 11.5 58.5 9 56.7"/><polygon class="cls-1" points="11.5 111.6 0 95.6 0 100.9 9 113.4 11.5 111.6"/></g></g></svg>