<svg xmlns="http://www.w3.org/2000/svg" viewBox="0 0 110.99 110.99"><defs><style>.cls-1{fill:#0b2333;}</style></defs><g id="Layer_2" data-name="Layer 2"><g id="Layer_3" data-name="Layer 3"><polygon class="cls-1" points="5.41 55.49 0 47.81 0 51.3 2.95 55.49 0 59.68 0 63.18 4.99 56.09 5.41 55.49"/><polygon class="cls-1" points="51.19 0 48.73 0 87.8 55.49 48.73 110.99 51.19 110.99 90.26 55.49 51.19 0"/><polygon class="cls-1" points="0 38.53 0 42.03 9.48 55.49 0 68.95 0 72.45 11.94 55.49 0 38.53"/><polygon class="cls-1" points="110.99 87.45 94.42 110.99 96.88 110.99 110.99 90.94 110.99 87.45"/><polygon class="cls-1" points="110.99 29.31 90.35 0 87.89 0 110.99 32.81 110.99 29.31"/><polygon class="cls-1" points="110.99 10.77 103.4 0 100.94 0 110.99 14.27 110.99 10.77"/><polygon class="cls-1" points="110.99 109.49 110.99 105.99 107.47 110.99 109.93 110.99 110.99 109.49"/><polygon class="cls-1" points="110.99 1.5 109.93 0 107.47 0 110.99 5 110.99 1.5"/><polygon class="cls-1" points="110.99 38.58 83.83 0 81.36 0 110.99 42.08 110.99 38.58"/><polygon class="cls-1" points="110.99 96.72 100.94 110.99 103.4 110.99 110.99 100.22 110.99 96.72"/><polygon class="cls-1" points="110.99 78.18 87.89 110.99 90.35 110.99 110.99 81.67 110.99 78.18"/><polygon class="cls-1" points="110.99 20.04 96.88 0 94.42 0 110.99 23.54 110.99 20.04"/><polygon class="cls-1" points="110.99 47.85 77.3 0 74.84 0 110.99 51.35 110.99 47.85"/><polygon class="cls-1" points="25.09 0 22.62 0 61.69 55.49 22.62 110.99 25.09 110.99 64.15 55.49 25.09 0"/><polygon class="cls-1" points="31.61 0 29.15 0 68.22 55.49 29.15 110.99 31.61 110.99 70.68 55.49 31.61 0"/><polygon class="cls-1" points="103.31 55.49 64.25 0 61.78 0 100.85 55.49 61.78 110.99 64.25 110.99 102.89 56.09 103.31 55.49"/><polygon class="cls-1" points="18.56 0 16.1 0 55.16 55.49 16.1 110.99 18.56 110.99 57.63 55.49 18.56 0"/><polygon class="cls-1" points="70.77 0 68.31 0 107.38 55.49 68.31 110.99 70.77 110.99 109.84 55.49 70.77 0"/><polygon class="cls-1" points="38.14 0 35.68 0 74.74 55.49 35.68 110.99 38.14 110.99 77.2 55.49 38.14 0"/><polygon class="cls-1" points="44.67 0 42.2 0 81.27 55.49 42.2 110.99 44.67 110.99 83.73 55.49 44.67 0"/><polygon class="cls-1" points="96.78 55.49 57.72 0 55.26 0 94.32 55.49 55.26 110.99 57.72 110.99 96.37 56.09 96.78 55.49"/><polygon class="cls-1" points="0 10.72 0 14.22 29.06 55.49 0 96.77 0 100.27 31.52 55.49 0 10.72"/><polygon class="cls-1" points="110.99 68.91 81.36 110.99 83.83 110.99 110.99 72.4 110.99 68.91"/><polygon class="cls-1" points="0 19.99 0 23.49 22.53 55.49 0 87.5 0 91 24.99 55.49 0 19.99"/><polygon class="cls-1" points="0 29.26 0 32.76 16 55.49 0 78.23 0 81.72 18.47 55.49 0 29.26"/><polygon class="cls-1" points="5.51 0 3.04 0 42.11 55.49 3.04 110.99 5.51 110.99 44.57 55.49 5.51 0"/><polygon class="cls-1" points="51.1 55.49 12.03 0 9.57 0 48.64 55.49 9.57 110.99 12.03 110.99 50.68 56.09 51.1 55.49"/><polygon class="cls-1" points="0 1.45 0 4.95 35.58 55.49 0 106.04 0 109.54 38.05 55.49 0 1.45"/><polygon class="cls-1" points="110.99 59.63 74.84 110.99 77.3 110.99 110.99 63.13 110.99 59.63"/></g></g></svg>