<svg xmlns="http://www.w3.org/2000/svg" viewBox="0 0 110.99 110.99"><defs><style>.cls-1{fill:#0b2333;}</style></defs><g id="Layer_2" data-name="Layer 2"><g id="Layer_3" data-name="Layer 3"><polygon class="cls-1" points="55.49 105.58 47.81 110.99 51.3 110.99 55.49 108.04 59.68 110.99 63.18 110.99 56.09 106 55.49 105.58"/><polygon class="cls-1" points="0 59.8 0 62.26 55.49 23.19 110.99 62.26 110.99 59.8 55.49 20.73 0 59.8"/><polygon class="cls-1" points="38.53 110.99 42.03 110.99 55.49 101.51 68.95 110.99 72.45 110.99 55.49 99.05 38.53 110.99"/><polygon class="cls-1" points="87.45 0 110.99 16.57 110.99 14.11 90.94 0 87.45 0"/><polygon class="cls-1" points="29.31 0 0 20.64 0 23.1 32.81 0 29.31 0"/><polygon class="cls-1" points="10.77 0 0 7.58 0 10.04 14.27 0 10.77 0"/><polygon class="cls-1" points="109.49 0 105.99 0 110.99 3.52 110.99 1.06 109.49 0"/><polygon class="cls-1" points="1.5 0 0 1.05 0 3.52 5 0 1.5 0"/><polygon class="cls-1" points="38.58 0 0 27.16 0 29.62 42.08 0 38.58 0"/><polygon class="cls-1" points="96.72 0 110.99 10.05 110.99 7.58 100.22 0 96.72 0"/><polygon class="cls-1" points="78.18 0 110.99 23.1 110.99 20.64 81.67 0 78.18 0"/><polygon class="cls-1" points="20.04 0 0 14.11 0 16.57 23.54 0 20.04 0"/><polygon class="cls-1" points="47.85 0 0 33.69 0 36.15 51.35 0 47.85 0"/><polygon class="cls-1" points="0 85.9 0 88.36 55.49 49.3 110.99 88.36 110.99 85.9 55.49 46.84 0 85.9"/><polygon class="cls-1" points="0 79.38 0 81.84 55.49 42.77 110.99 81.84 110.99 79.38 55.49 40.31 0 79.38"/><polygon class="cls-1" points="55.49 7.68 0 46.74 0 49.2 55.49 10.14 110.99 49.2 110.99 46.74 56.09 8.1 55.49 7.68"/><polygon class="cls-1" points="0 92.43 0 94.89 55.49 55.83 110.99 94.89 110.99 92.43 55.49 53.36 0 92.43"/><polygon class="cls-1" points="0 40.22 0 42.68 55.49 3.61 110.99 42.68 110.99 40.22 55.49 1.15 0 40.22"/><polygon class="cls-1" points="0 72.85 0 75.31 55.49 36.24 110.99 75.31 110.99 72.85 55.49 33.78 0 72.85"/><polygon class="cls-1" points="0 66.32 0 68.78 55.49 29.72 110.99 68.78 110.99 66.32 55.49 27.25 0 66.32"/><polygon class="cls-1" points="55.49 14.2 0 53.27 0 55.73 55.49 16.66 110.99 55.73 110.99 53.27 56.09 14.62 55.49 14.2"/><polygon class="cls-1" points="10.72 110.99 14.22 110.99 55.49 81.93 96.77 110.99 100.27 110.99 55.49 79.47 10.72 110.99"/><polygon class="cls-1" points="68.91 0 110.99 29.63 110.99 27.16 72.4 0 68.91 0"/><polygon class="cls-1" points="19.99 110.99 23.49 110.99 55.49 88.46 87.5 110.99 91 110.99 55.49 86 19.99 110.99"/><polygon class="cls-1" points="29.26 110.99 32.76 110.99 55.49 94.98 78.23 110.99 81.72 110.99 55.49 92.52 29.26 110.99"/><polygon class="cls-1" points="0 105.48 0 107.94 55.49 68.88 110.99 107.94 110.99 105.48 55.49 66.42 0 105.48"/><polygon class="cls-1" points="55.49 59.89 0 98.95 0 101.42 55.49 62.35 110.99 101.42 110.99 98.95 56.09 60.31 55.49 59.89"/><polygon class="cls-1" points="1.45 110.99 4.95 110.99 55.49 75.41 106.04 110.99 109.54 110.99 55.49 72.94 1.45 110.99"/><polygon class="cls-1" points="59.63 0 110.99 36.15 110.99 33.69 63.13 0 59.63 0"/></g></g></svg>