<?xml version="1.0" encoding="utf-8"?>
<!-- Generator: Adobe Illustrator 25.2.1, SVG Export Plug-In . SVG Version: 6.00 Build 0)  -->
<svg version="1.1" id="Layer_1" xmlns="http://www.w3.org/2000/svg" xmlns:xlink="http://www.w3.org/1999/xlink" x="0px" y="0px"
	 viewBox="0 0 103 103" style="enable-background:new 0 0 103 103;" xml:space="preserve">
<g>
	<path d="M103,103L103,103c-4.3,0-8.4,0-12.7,0L0,13.1C0,9,0,4.3,0,0c0-0.2,0,0.2,0,0L103,103z"/>
	<path d="M103,77.9c0,4.3,0,8.8,0,13.1L13,0c4.3,0,8.6,0,12.9,0L103,77.9z"/>
	<path d="M77.4,103c-4.3,0-8.5,0-12.9,0L0,38.9c0-4.3,0-8.8,0-13.1L77.4,103z"/>
	<path d="M103,52c0,4.3,0,8.7,0,13L38.7,0c4.3,0,8.7,0,13,0L103,52z"/>
	<path d="M51.7,103c-4.3,0-8.7,0-13,0L0,65c0-4.3,0-8.6,0-13L51.7,103z"/>
	<path d="M103,25.8c0,4.3,0,8.8,0,13.1L64.6,0c4.3,0,8.6,0,12.9,0L103,25.8z"/>
	<path d="M25.9,103c-4.3,0-8.5,0-12.9,0L0,91c0-4.3,0-8.8,0-13.1L25.9,103z"/>
	<path d="M90.3,0c4.2,0,8.5,0,12.7,0c0,4.2,0,8.8,0,13.1L90.3,0z"/>
</g>
</svg>
