<?xml version="1.0" encoding="utf-8"?>
<!-- Generator: Adobe Illustrator 25.2.1, SVG Export Plug-In . SVG Version: 6.00 Build 0)  -->
<svg version="1.1" id="Layer_1" xmlns="http://www.w3.org/2000/svg" xmlns:xlink="http://www.w3.org/1999/xlink" x="0px" y="0px"
	 viewBox="0 0 102.9 103" style="enable-background:new 0 0 102.9 103;" xml:space="preserve">
<g>
	<path d="M0,103L0,103c0-4.3,0-8.6,0-12.8L89.8-0.1c4.2,0,8.9,0,13.1,0c0.2,0-0.2,0,0,0L0,103z"/>
	<path d="M25.1,102.9c-4.3,0-8.8,0-13.1,0l90.9-90c0,4.3,0,8.6,0,12.9L25.1,102.9z"/>
	<path d="M0,77.4c0-4.3,0-8.5,0-12.9L64-0.1c4.3,0,8.8,0,13.1,0L0,77.4z"/>
	<path d="M51,102.9c-4.3,0-8.7,0-13,0l64.9-64.2c0,4.3,0,8.7,0,13L51,102.9z"/>
	<path d="M0,51.8c0-4.3,0-8.7,0-13L38.1-0.1c4.3,0,8.6,0,13,0L0,51.8z"/>
	<path d="M77.1,102.9c-4.3,0-8.8,0-13.1,0l38.9-38.5c0,4.3,0,8.6,0,12.9L77.1,102.9z"/>
	<path d="M0,25.9c0-4.3,0-8.5,0-12.9L12-0.1c4.3,0,8.8,0,13.1,0L0,25.9z"/>
	<path d="M102.9,90.1c0,4.2,0,8.6,0,12.8c-4.2,0-8.8,0-13.1,0L102.9,90.1z"/>
</g>
</svg>
