<svg xmlns="http://www.w3.org/2000/svg" viewBox="0 0 104.49 104.37"><defs><style>.cls-1{fill:#141314;}</style></defs><g id="Layer_2" data-name="Layer 2"><g id="Layer_1-2" data-name="Layer 1"><path class="cls-1" d="M34.52,104.37,33.94,103l.58-1.38c6.61-15.56,17.19-21.63,24.95-24-7.74-2.34-18.32-8.41-24.95-24l-.58-1.38.58-1.38c6.6-15.55,17.24-21.62,25-24-7.75-2.34-18.37-8.4-25-24l-.58-1.38L34.52.09,35.3,0c1,0,23.47-.92,34.67,25.46l.58,1.38L70,28.22c-6.61,15.57-17.21,21.64-25,24,7.74,2.34,18.33,8.41,25,24l.58,1.38L70,79c-6.61,15.56-17.21,21.64-25,24M67.2,79.12c-5.44.37-21,3.13-29.91,22.35C42.74,101.11,58.33,98.35,67.2,79.12ZM37.28,53.73c8.83,19.12,24.52,22,29.92,22.35C58.27,56.71,42.68,54.05,37.28,53.73ZM67.2,28.37c-5.45.37-21.05,3.14-29.91,22.34C42.74,50.35,58.33,47.59,67.2,28.37ZM37.29,3c8.93,19.37,24.52,22,29.92,22.36C58.38,6.22,42.69,3.39,37.29,3ZM.58,104.37,0,103l.58-1.38c6.61-15.56,17.2-21.63,25-24-7.74-2.34-18.32-8.41-25-24L0,52.23l.58-1.38c6.61-15.55,17.24-21.62,25-24-7.74-2.33-18.37-8.39-25-24L0,1.47.58.09,1.36,0C2.32,0,24.83-.91,36,25.47l.58,1.38L36,28.22c-6.61,15.57-17.2,21.65-25,24,7.74,2.34,18.34,8.41,25,24l.58,1.38L36,79c-6.61,15.56-17.2,21.64-25,24m22.2-23.86c-5.45.37-21.05,3.13-29.92,22.35C8.8,101.11,24.39,98.35,33.27,79.12ZM3.34,53.73c8.83,19.12,24.52,22,29.92,22.35C24.33,56.71,8.74,54.05,3.34,53.73ZM33.27,28.37c-5.46.37-21.06,3.15-29.92,22.34C8.8,50.35,24.39,47.59,33.27,28.37ZM3.35,3c8.94,19.37,24.52,22,29.92,22.36C24.44,6.22,8.75,3.39,3.35,3ZM68.46,104.37,67.87,103l.59-1.38c6.61-15.56,17.19-21.63,25-24-7.74-2.34-18.32-8.41-25-24l-.58-1.38.58-1.38c6.6-15.55,17.24-21.62,25-24-7.75-2.33-18.37-8.39-25-24l-.58-1.38L68.46.09,69.24,0c1,0,23.46-.92,34.66,25.46l.59,1.38-.59,1.38c-6.61,15.56-17.2,21.64-25,24,7.75,2.34,18.34,8.41,25,24l.59,1.38L103.9,79c-6.61,15.57-17.2,21.64-25,24m22.19-23.85c-5.45.36-21,3.12-29.92,22.34C76.68,101.11,92.27,98.35,101.14,79.13ZM71.22,53.73c8.82,19.12,24.52,22,29.92,22.35C92.2,56.71,76.62,54.05,71.22,53.73Zm29.92-25.36c-5.46.37-21,3.15-29.92,22.34C76.67,50.35,92.27,47.58,101.14,28.37ZM71.23,3c8.93,19.37,24.52,22,29.92,22.36C92.32,6.23,76.63,3.39,71.23,3Z"/></g></g></svg>