<svg xmlns="http://www.w3.org/2000/svg" viewBox="0 0 104.37 104.49"><defs><style>.cls-1{fill:#141314;}</style></defs><g id="Layer_2" data-name="Layer 2"><g id="Layer_1-2" data-name="Layer 1"><path class="cls-1" d="M0,34.52l1.38-.58,1.38.58c15.56,6.61,21.63,17.19,24,24.95,2.34-7.74,8.41-18.32,24-24.95l1.38-.58,1.38.58c15.55,6.6,21.62,17.24,24,25,2.34-7.75,8.4-18.37,24-25l1.39-.58,1.37.58.08.78c0,1,.92,23.47-25.45,34.67l-1.38.58L76.15,70c-15.57-6.61-21.64-17.21-24-25-2.34,7.74-8.41,18.33-24,25l-1.38.58L25.39,70C9.82,63.36,3.74,52.76,1.39,45M25.25,67.2c-.37-5.44-3.13-21-22.35-29.91C3.26,42.74,6,58.33,25.25,67.2ZM50.64,37.28C31.52,46.11,28.69,61.8,28.29,67.2,47.66,58.27,50.32,42.68,50.64,37.28ZM76,67.2c-.37-5.45-3.15-21.05-22.35-29.91C54,42.74,56.79,58.33,76,67.2Zm25.37-29.91C82,46.22,79.35,61.81,79,67.21,98.15,58.38,101,42.69,101.38,37.29ZM0,.58,1.38,0,2.76.58c15.56,6.61,21.63,17.2,24,25,2.34-7.74,8.41-18.32,24-25L52.14,0l1.38.58c15.55,6.61,21.62,17.24,24,25,2.34-7.74,8.4-18.37,24-25L102.91,0l1.37.58.08.78c0,1,.92,23.47-25.45,34.67l-1.38.58L76.15,36c-15.57-6.61-21.64-17.2-24-25-2.34,7.74-8.41,18.34-24,25l-1.38.58L25.39,36c-15.57-6.61-21.65-17.2-24-25m23.86,22.2C24.88,27.82,22.12,12.22,2.9,3.35,3.26,8.8,6,24.39,25.25,33.27ZM50.64,3.34C31.52,12.17,28.69,27.86,28.29,33.26,47.66,24.33,50.32,8.74,50.64,3.34ZM76,33.27c-.37-5.46-3.15-21.06-22.35-29.92C54,8.8,56.79,24.39,76,33.27ZM101.38,3.35C82,12.29,79.35,27.87,79,33.27,98.15,24.44,101,8.75,101.38,3.35ZM0,68.46l1.38-.59,1.38.59c15.56,6.61,21.63,17.19,24,25,2.34-7.74,8.41-18.32,24-25l1.38-.58,1.38.58c15.55,6.6,21.62,17.24,24,25,2.34-7.75,8.4-18.37,24-25l1.39-.58,1.38.58.07.78c0,1,.93,23.46-25.45,34.66l-1.38.59-1.38-.59c-15.57-6.61-21.64-17.2-24-25-2.34,7.75-8.41,18.34-24,25l-1.38.59-1.38-.59C9.82,97.29,3.74,86.7,1.39,79m23.86,22.19c-.37-5.45-3.13-21-22.35-29.92C3.26,76.68,6,92.27,25.25,101.14ZM50.64,71.22C31.52,80,28.69,95.74,28.29,101.14,47.66,92.2,50.32,76.62,50.64,71.22ZM76,101.14c-.37-5.46-3.16-21-22.35-29.92C54,76.67,56.79,92.27,76,101.14Zm25.37-29.91C82,80.16,79.35,95.75,79,101.15,98.15,92.32,101,76.63,101.38,71.23Z"/></g></g></svg>