<?xml version="1.0" encoding="utf-8"?>
<!-- Generator: Adobe Illustrator 25.0.0, SVG Export Plug-In . SVG Version: 6.00 Build 0)  -->
<svg version="1.1" id="Layer_1" xmlns="http://www.w3.org/2000/svg" xmlns:xlink="http://www.w3.org/1999/xlink" x="0px" y="0px"
	 viewBox="0 0 113.39 113.39" style="enable-background:new 0 0 113.39 113.39;" xml:space="preserve">
<style type="text/css">
	.st0{fill:#1D1D1B;}
</style>
<g>
	<path class="st0" d="M51.04,129.3"/>
</g>
<g>
	<g>
		<polygon class="st0" points="112.92,0 104.86,8.1 112.92,16.2 104.86,24.3 112.92,32.4 104.86,40.49 112.92,48.59 104.86,56.69 
			112.92,64.79 104.86,72.89 112.92,80.99 104.86,89.09 112.92,97.19 104.86,105.29 112.92,113.39 107.28,113.39 99.21,105.29 
			107.28,97.19 99.21,89.09 107.28,80.99 99.21,72.89 107.28,64.79 99.21,56.69 107.28,48.59 99.21,40.49 107.28,32.4 99.21,24.3 
			107.28,16.2 99.21,8.1 107.28,0 		"/>
	</g>
	<polygon class="st0" points="98.75,0 90.68,8.1 98.75,16.2 90.68,24.3 98.75,32.4 90.68,40.49 98.75,48.59 90.68,56.69 
		98.75,64.79 90.68,72.89 98.75,80.99 90.68,89.09 98.75,97.19 90.68,105.29 98.75,113.39 93.11,113.39 85.04,105.29 93.11,97.19 
		85.04,89.09 93.11,80.99 85.04,72.89 93.11,64.79 85.04,56.69 93.11,48.59 85.04,40.49 93.11,32.4 85.04,24.3 93.11,16.2 
		85.04,8.1 93.11,0 	"/>
	<polygon class="st0" points="84.58,0 76.51,8.1 84.58,16.2 76.51,24.3 84.58,32.4 76.51,40.49 84.58,48.59 76.51,56.69 
		84.58,64.79 76.51,72.89 84.58,80.99 76.51,89.09 84.58,97.19 76.51,105.29 84.58,113.39 78.93,113.39 70.87,105.29 78.93,97.19 
		70.87,89.09 78.93,80.99 70.87,72.89 78.93,64.79 70.87,56.69 78.93,48.59 70.87,40.49 78.93,32.4 70.87,24.3 78.93,16.2 
		70.87,8.1 78.93,0 	"/>
	<polygon class="st0" points="70.4,0 62.34,8.1 70.4,16.2 62.34,24.3 70.4,32.4 62.34,40.49 70.4,48.59 62.34,56.69 70.4,64.79 
		62.34,72.89 70.4,80.99 62.34,89.09 70.4,97.19 62.34,105.29 70.4,113.39 64.76,113.39 56.69,105.29 64.76,97.19 56.69,89.09 
		64.76,80.99 56.69,72.89 64.76,64.79 56.69,56.69 64.76,48.59 56.69,40.49 64.76,32.4 56.69,24.3 64.76,16.2 56.69,8.1 64.76,0 	
		"/>
	<polygon class="st0" points="56.23,0 48.16,8.1 56.23,16.2 48.16,24.3 56.23,32.4 48.16,40.49 56.23,48.59 48.16,56.69 
		56.23,64.79 48.16,72.89 56.23,80.99 48.16,89.09 56.23,97.19 48.16,105.29 56.23,113.39 50.59,113.39 42.52,105.29 50.59,97.19 
		42.52,89.09 50.59,80.99 42.52,72.89 50.59,64.79 42.52,56.69 50.59,48.59 42.52,40.49 50.59,32.4 42.52,24.3 50.59,16.2 
		42.52,8.1 50.59,0 	"/>
	<polygon class="st0" points="42.06,0 33.99,8.1 42.06,16.2 33.99,24.3 42.06,32.4 33.99,40.49 42.06,48.59 33.99,56.69 
		42.06,64.79 33.99,72.89 42.06,80.99 33.99,89.09 42.06,97.19 33.99,105.29 42.06,113.39 36.41,113.39 28.35,105.29 36.41,97.19 
		28.35,89.09 36.41,80.99 28.35,72.89 36.41,64.79 28.35,56.69 36.41,48.59 28.35,40.49 36.41,32.4 28.35,24.3 36.41,16.2 
		28.35,8.1 36.41,0 	"/>
	<polygon class="st0" points="27.88,0 19.82,8.1 27.88,16.2 19.82,24.3 27.88,32.4 19.82,40.49 27.88,48.59 19.82,56.69 
		27.88,64.79 19.82,72.89 27.88,80.99 19.82,89.09 27.88,97.19 19.82,105.29 27.88,113.39 22.24,113.39 14.17,105.29 22.24,97.19 
		14.17,89.09 22.24,80.99 14.17,72.89 22.24,64.79 14.17,56.69 22.24,48.59 14.17,40.49 22.24,32.4 14.17,24.3 22.24,16.2 
		14.17,8.1 22.24,0 	"/>
	<g>
		<polygon class="st0" points="13.71,0 5.65,8.1 13.71,16.2 5.65,24.3 13.71,32.4 5.65,40.49 13.71,48.59 5.65,56.69 13.71,64.79 
			5.65,72.89 13.71,80.99 5.65,89.09 13.71,97.19 5.65,105.29 13.71,113.39 8.07,113.39 0,105.29 8.07,97.19 0,89.09 8.07,80.99 
			0,72.89 8.07,64.79 0,56.69 8.07,48.59 0,40.49 8.07,32.4 0,24.3 8.07,16.2 0,8.1 8.07,0 		"/>
	</g>
</g>
</svg>
