<svg width="101" height="97" viewBox="0 0 101 97" fill="none" xmlns="http://www.w3.org/2000/svg">
<g clip-path="url(#clip0_140_2053)">
<path fill-rule="evenodd" clip-rule="evenodd" d="M50.0615 25.6726L32.0907 32.0907V49.0346C32.0907 58.3795 43.4722 67.6045 50.0615 70.5996V25.6726ZM47.4942 66.0179C45.9843 65.1023 44.3583 63.9401 42.7876 62.5962V48.35L37.2099 56.4069C36.2639 54.9564 35.5215 53.4379 35.0869 51.8903L39.7925 45.3549L34.6702 34.3786L38.2458 33.1016L42.7876 42.3598L42.7876 31.4795L47.4942 29.7985V66.0179Z" fill="#A31F34"/>
<mask id="mask0_140_2053" style="mask-type:luminance" maskUnits="userSpaceOnUse" x="50" y="25" width="19" height="46">
<path fill-rule="evenodd" clip-rule="evenodd" d="M68.0323 32.0907L50.0615 25.6726V70.5996C56.6508 67.6045 68.0323 58.3795 68.0323 49.0346V32.0907Z" fill="white"/>
</mask>
<g mask="url(#mask0_140_2053)">
<path d="M50.0615 25.6727H49.8476V25.3691L50.1334 25.4712L50.0615 25.6727ZM68.0323 32.0909L68.1042 31.8894L68.2463 31.9401V32.0909H68.0323ZM50.0615 70.5997L50.1501 70.7944L49.8476 70.9322V70.5997H50.0615ZM50.1334 25.4712L68.1042 31.8894L67.9604 32.2923L49.9897 25.8742L50.1334 25.4712ZM49.8476 70.5997V25.6727H50.2755V70.5997H49.8476ZM68.2463 49.0348C68.2463 53.7897 65.3551 58.4831 61.6728 62.346C57.9858 66.2136 53.4709 69.2848 50.1501 70.7944L49.973 70.405C53.2415 68.9194 57.712 65.8807 61.363 62.0507C65.0188 58.2161 67.8184 53.6246 67.8184 49.0348H68.2463ZM68.2463 32.0909V49.0348H67.8184V32.0909H68.2463Z" fill="#333333"/>
</g>
<path fill-rule="evenodd" clip-rule="evenodd" d="M57.3354 62.5962C55.7647 63.9402 54.1388 65.1023 52.6288 66.018V29.7986L57.3354 31.4795V42.3598L61.8773 33.1016L65.4527 34.3786L60.3306 45.355L65.0363 51.8903C64.6016 53.438 63.8592 54.9565 62.9132 56.407L57.3354 48.3501V62.5962Z" fill="#333333"/>
<path d="M62.0421 21.3938L68.0323 19.2544V25.6725L62.0421 23.5332V21.3938Z" fill="#A31F34"/>
<mask id="mask1_140_2053" style="mask-type:luminance" maskUnits="userSpaceOnUse" x="50" y="12" width="25" height="68">
<path fill-rule="evenodd" clip-rule="evenodd" d="M50.0615 79.157V73.1667C57.2785 69.8862 69.7438 59.8033 69.7438 49.5685V30.5421L50.0615 23.5331V12.8362L56.0518 14.9756V21.3937L68.0323 25.6725V19.2543L74.0226 21.3937V49.6335C74.0226 64.4094 58.8471 75.1636 50.0615 79.157Z" fill="white"/>
</mask>
<g mask="url(#mask1_140_2053)">
<path d="M50.0615 79.1571L50.1501 79.3518L49.8476 79.4895V79.1571H50.0615ZM50.0615 73.1668H49.8476V73.029L49.973 72.9721L50.0615 73.1668ZM69.7438 30.5422L69.8157 30.3407L69.9578 30.3913V30.5422H69.7438ZM50.0615 23.5332L49.9897 23.7347L49.8476 23.6841V23.5332H50.0615ZM50.0615 12.8363H49.8476V12.5327L50.1334 12.6348L50.0615 12.8363ZM56.0518 14.9757L56.1237 14.7742L56.2657 14.8249V14.9757H56.0518ZM56.0518 21.3938L55.9799 21.5953L55.8379 21.5446V21.3938H56.0518ZM68.0323 25.6726H68.2463V25.9762L67.9604 25.8741L68.0323 25.6726ZM68.0323 19.2544H67.8184V18.9509L68.1042 19.0529L68.0323 19.2544ZM74.0226 21.3938L74.0945 21.1923L74.2365 21.243V21.3938H74.0226ZM49.8476 79.1571V73.1668H50.2755V79.1571H49.8476ZM49.973 72.9721C53.5551 71.3436 58.4539 68.019 62.4541 63.828C66.4595 59.6314 69.5299 54.6034 69.5299 49.5686H69.9578C69.9578 54.7686 66.7953 59.8992 62.7639 64.1232C58.7273 68.3524 53.7845 71.7095 50.1501 73.3615L49.973 72.9721ZM69.5299 49.5686V30.5422H69.9578V49.5686H69.5299ZM69.672 30.7438L49.9897 23.7347L50.1334 23.3317L69.8157 30.3407L69.672 30.7438ZM49.8476 23.5332V12.8363H50.2755V23.5332H49.8476ZM55.9799 15.1772L49.9897 13.0378L50.1334 12.6348L56.1237 14.7742L55.9799 15.1772ZM55.8379 21.3938V14.9757H56.2657V21.3938H55.8379ZM67.9604 25.8741L55.9799 21.5953L56.1237 21.1923L68.1042 25.4711L67.9604 25.8741ZM68.2463 19.2544V25.6726H67.8184V19.2544H68.2463ZM73.9507 21.5953L67.9604 19.4559L68.1042 19.0529L74.0945 21.1923L73.9507 21.5953ZM73.8087 49.6336V21.3938H74.2365V49.6336H73.8087ZM49.973 78.9624C54.3463 76.9745 60.3134 73.3016 65.1831 68.2899C70.054 63.2769 73.8087 56.9452 73.8087 49.6336H74.2365C74.2365 57.0979 70.4036 63.5311 65.4903 68.5877C60.5762 73.6452 54.5624 77.3463 50.1501 79.3518L49.973 78.9624Z" fill="#333333"/>
</g>
<path d="M37.974 23.4578L32.1977 25.5208V19.4062L37.974 21.4692V23.4578Z" stroke="#333333" stroke-width="0.5"/>
<path fill-rule="evenodd" clip-rule="evenodd" d="M50.0615 79.157V73.1667C42.8445 69.8862 30.3792 59.8033 30.3792 49.5685V30.5421L50.0615 23.5331V12.8362L44.0713 14.9756V21.3937L32.0907 25.6725V19.2543L26.1005 21.3937V49.6335C26.1005 64.4094 41.2758 75.1636 50.0615 79.157Z" fill="#A31F34"/>
<path d="M50.0615 13.2641V3.85083H49.6336V13.2641H50.0615Z" fill="#333333"/>
<path d="M46.6385 0.855752L50.0615 0V4.2645L46.6385 3.42301L47.0664 5.13451L43.6434 4.2645L44.0712 5.13451L41.0761 4.27876L43.6434 3.54526V2.56726L46.6385 1.81847V0.855752Z" fill="#333333"/>
<path d="M0.375366 65.071C2.84056 67.9895 5.55091 70.677 8.47147 73.1065L10.6609 70.4742L23.5349 69.0536C18.2346 65.9939 13.4931 62.0335 9.52871 57.3401L8.12968 64.6093L0.375366 65.071Z" fill="#333333"/>
<path d="M99.7499 65.0683C97.2854 67.9869 94.5756 70.6739 91.6554 73.103L89.4659 70.4711L76.5903 69.0527C81.8904 65.9921 86.6317 62.0317 90.5959 57.3379L91.9934 64.6092L99.7499 65.0683Z" fill="#333333"/>
<path d="M19.2171 76.3189C16.3147 74.6365 13.5396 72.7106 10.9235 70.5528L23.3366 69.1832L19.2171 76.3189ZM80.9084 76.3176L76.7884 69.1819L89.2032 70.5498C86.5867 72.708 83.8111 74.6347 80.9084 76.3176Z" stroke="#333333" stroke-width="0.5"/>
<path fill-rule="evenodd" clip-rule="evenodd" d="M50.0645 96.7C32.8701 96.7009 16.2183 90.6811 2.99915 79.6855L10.6609 70.4742C21.728 79.6795 35.6689 84.7195 50.0641 84.7186C64.4592 84.7182 78.3998 79.6774 89.4659 70.4712L97.1284 79.6817C83.9104 90.6781 67.2587 96.6991 50.0645 96.7ZM8.61819 79.8391L9.6258 80.5353L10.4356 79.3629L11.3126 79.1635L11.3812 81.7474L12.5725 82.5707L12.4044 78.8974L15.6429 78.1392L14.3754 77.2637L11.3767 78.0005L12.6898 76.099L11.6822 75.4033L8.61819 79.8391ZM13.5472 83.1804L16.2165 78.496L17.2805 79.1023L17.6463 83.1581L19.3013 80.2541L20.3653 80.8605L17.696 85.5444L16.632 84.9381L16.2661 80.8823L14.6112 83.7867L13.5472 83.1804ZM23.0102 83.3118C23.4449 83.5094 23.7363 83.8111 23.8845 84.2167C24.0349 84.6181 24.0112 85.0361 23.8135 85.4708C23.6158 85.9051 23.3164 86.1978 22.9152 86.348C22.5141 86.4986 22.0961 86.475 21.6615 86.2774C21.2268 86.0793 20.9343 85.7802 20.784 85.3788C20.6336 84.9779 20.6573 84.5599 20.855 84.1251C21.0527 83.6904 21.3521 83.3978 21.7533 83.2476C22.1565 83.0927 22.5755 83.1141 23.0102 83.3118ZM23.4948 82.2459C22.7377 81.9015 22.0157 81.8583 21.329 82.1154C20.6469 82.3751 20.1337 82.8834 19.7893 83.6404C19.445 84.3977 19.3991 85.1187 19.6518 85.8033C19.9092 86.49 20.4165 87.0056 21.1736 87.3496C21.9308 87.6941 22.6527 87.7377 23.3395 87.4801C24.0263 87.223 24.5418 86.7155 24.8862 85.9586C25.2305 85.2013 25.274 84.4794 25.0166 83.7927C24.7593 83.1059 24.252 82.5904 23.4948 82.2459ZM26.2708 83.6767L27.414 84.0464L27.4414 87.8922L29.7151 84.7905L30.8656 85.1623L30.8856 89.0055L33.1593 85.9038L34.3172 86.2782L30.9437 90.8539L29.7639 90.4723L29.7322 86.6898L27.4922 89.7376L26.3123 89.3564L26.2708 83.6767ZM34.6342 86.2487L33.5011 91.5197L37.2961 92.3352L37.513 91.3263L34.9152 90.7679L35.8314 86.5063L34.6342 86.2487ZM39.136 87.1969L43.1633 87.7587L43.023 88.7659L40.2082 88.3727L40.0421 89.5626L42.2695 89.8737L42.1289 90.8805L39.9016 90.5698L39.744 91.6986L42.5587 92.0913L42.4181 93.0981L38.3907 92.5363L39.136 87.1969ZM43.7264 87.834L43.4012 93.2154L45.6001 93.3484C46.3994 93.3968 47.0574 93.1918 47.5739 92.7344C48.0903 92.2719 48.3727 91.6408 48.4211 90.8415C48.4707 90.0161 48.267 89.3431 47.8101 88.8215C47.3531 88.2999 46.7245 88.0154 45.9248 87.967L43.7264 87.834ZM44.8864 88.9379L45.7015 88.9871C46.1987 89.0175 46.5868 89.1925 46.8657 89.513C47.1499 89.8283 47.2774 90.2348 47.247 90.732C47.2166 91.2394 47.0407 91.6374 46.7198 91.9266C46.4041 92.2111 45.998 92.3382 45.5008 92.3083L44.6857 92.2591L44.8864 88.9379ZM49.0967 90.868C49.0744 90.0367 49.326 89.3546 49.851 88.8219C50.376 88.2888 51.0696 88.0111 51.9322 87.988C52.8765 87.9628 53.6189 88.2537 54.1589 88.8604L53.2556 89.6554C52.933 89.3093 52.4842 89.1441 51.9095 89.1595C51.4218 89.1728 51.0307 89.3345 50.7359 89.6456C50.4466 89.9562 50.308 90.3529 50.3208 90.8355C50.3341 91.3233 50.5014 91.7165 50.8227 92.0165C51.1436 92.3108 51.5762 92.4508 52.1205 92.4362C52.5158 92.4255 52.8419 92.3322 53.099 92.1555L53.0622 90.7701L54.2864 90.7371L54.3386 92.6925L54.3309 92.6929C53.8273 93.2663 53.1008 93.5654 52.1513 93.591C51.2583 93.615 50.5301 93.3775 49.9674 92.8791C49.4095 92.375 49.1194 91.705 49.0967 90.868ZM59.1248 87.4882L55.0831 87.9358L55.6761 93.2941L59.7183 92.847L59.6062 91.8363L56.7818 92.1491L56.656 91.0161L58.8912 90.7688L58.7795 89.7581L56.5443 90.0054L56.4121 88.8117L59.2369 88.4989L59.1248 87.4882ZM64.1139 92.0657L62.9188 92.3331L61.743 87.0715L62.938 86.8045L63.4421 89.0594L64.9371 86.3574L66.4406 86.0215L64.7985 88.9139L67.6092 91.2848L66.1959 91.6006L64.2525 89.8963L63.8032 90.6755L64.1139 92.0657ZM68.4243 91.0867L69.6052 90.7093L69.737 89.3251L71.8648 88.6452L72.7745 89.6965L73.9559 89.3191L70.1435 84.8778L68.9476 85.2599L68.4243 91.0867ZM71.176 87.8306L69.826 88.2619L69.9946 86.4613L71.176 87.8306ZM76.7935 83.8907C76.5526 83.8466 76.2651 83.844 75.9309 83.8834C75.6015 83.9206 75.3182 83.9887 75.0816 84.0875C74.688 84.2518 74.5194 84.4473 74.575 84.6745C74.6165 84.8406 74.7581 84.9458 74.999 84.9899C75.2425 85.0275 75.5527 85.0369 75.9292 85.019C76.6036 84.9826 77.1397 85.0344 77.5376 85.1743C77.9381 85.3074 78.2201 85.5962 78.3827 86.0399C78.4734 86.297 78.5003 86.5418 78.464 86.7741C78.4272 87.006 78.3347 87.2118 78.1867 87.3903C78.0434 87.567 77.8765 87.7202 77.6857 87.8498C77.497 87.9842 77.2817 88.1018 77.04 88.2024C76.2347 88.5387 75.4021 88.6298 74.5425 88.4766L74.673 87.3291C74.9246 87.3856 75.2463 87.3903 75.6387 87.3436C76.0336 87.2901 76.3639 87.208 76.6292 87.0972C77.013 86.9372 77.1902 86.7489 77.1615 86.5328C77.1495 86.4378 77.1008 86.3608 77.0152 86.3018C76.9339 86.241 76.8295 86.2042 76.7015 86.1905C76.5715 86.1725 76.4675 86.1631 76.3892 86.1623C76.316 86.1597 76.2377 86.1588 76.1547 86.1601C75.7183 86.1807 75.3554 86.1849 75.0662 86.1717C74.7752 86.1541 74.5044 86.1113 74.2537 86.0437C74.0025 85.9757 73.8005 85.8713 73.6465 85.7293C73.4976 85.5859 73.3804 85.3981 73.2952 85.1666C73.1331 84.7113 73.1737 84.3023 73.4172 83.939C73.6636 83.5693 74.0402 83.2788 74.5472 83.067C75.2626 82.7688 76.0238 82.6794 76.8303 82.7987L76.7935 83.8907ZM81.0192 80.1754L77.0083 82.2117L77.5 83.18L78.9629 82.4372L80.9114 86.2765L82.0034 85.722L80.0548 81.8831L81.5104 81.1441L81.0192 80.1754ZM84.2553 84.5355L81.4706 79.9187L82.5194 79.2863L84.7709 83.0191L87.0459 81.6469L87.579 82.5305L84.2553 84.5355ZM88.7411 75.1629L85.4221 77.5123L88.537 81.9126L91.8561 79.5631L91.2686 78.7335L88.9491 80.3752L88.2906 79.445L90.1262 78.1456L89.5387 77.3159L87.7031 78.6154L87.0091 77.6347L89.3286 75.9925L88.7411 75.1629Z" fill="#333333"/>
</g>
<defs>
<clipPath id="clip0_140_2053">
<rect width="100.123" height="96.7" fill="white"/>
</clipPath>
</defs>
</svg>
