<svg xmlns="http://www.w3.org/2000/svg" viewBox="0 0 371.47 96.7"><defs><style>.cls-1{fill:#1c1d1c;}</style></defs><g id="Layer_2" data-name="Layer 2"><g id="Layer_1-2" data-name="Layer 1"><polygon class="cls-1" points="99.77 75.81 103.54 75.81 103.54 75.2 99.77 75.2 99.77 71.82 103.66 71.82 103.66 71.22 99.11 71.22 99.11 79.86 103.77 79.86 103.77 79.26 99.77 79.26 99.77 75.81"/><path class="cls-1" d="M108.18,75.15c-1.56-.69-1.74-1.25-1.74-1.94a1.56,1.56,0,0,1,1.75-1.51,3.18,3.18,0,0,1,1.86.66v-.75a3.64,3.64,0,0,0-1.85-.51,2.21,2.21,0,0,0-2.43,2.13c0,1.13.54,1.76,2,2.42,1.62.76,1.94,1.23,1.94,2.09A1.59,1.59,0,0,1,108,79.37a3.13,3.13,0,0,1-2.16-.94v.82A3.51,3.51,0,0,0,108,80a2.22,2.22,0,0,0,2.43-2.23C110.38,76.56,109.91,75.93,108.18,75.15Z"/><polygon class="cls-1" points="112.04 71.82 115.17 71.82 115.17 79.86 115.83 79.86 115.83 71.82 118.98 71.82 118.98 71.22 112.04 71.22 112.04 71.82"/><rect class="cls-1" x="119.94" y="78.76" width="0.81" height="1.1"/><polygon class="cls-1" points="128.07 73.13 128.44 73.6 130.22 72.2 130.22 79.86 130.88 79.86 130.88 71.11 130.59 71.11 128.07 73.13"/><path class="cls-1" d="M138.51,75.4a2.17,2.17,0,0,0,1.32-2,2.36,2.36,0,0,0-4.71,0,2.17,2.17,0,0,0,1.3,2,2.23,2.23,0,0,0-1.49,2.14,2.53,2.53,0,0,0,5.06,0A2.23,2.23,0,0,0,138.51,75.4Zm-2.74-2a1.7,1.7,0,0,1,3.39,0,1.66,1.66,0,0,1-1.68,1.72A1.67,1.67,0,0,1,135.77,73.39Zm1.7,6a1.77,1.77,0,0,1-1.86-1.83,1.85,1.85,0,0,1,3.7,0A1.76,1.76,0,0,1,137.47,79.35Z"/><path class="cls-1" d="M144.71,71.11a2.44,2.44,0,0,0-2.52,2.5,2.35,2.35,0,0,0,2.44,2.4,3,3,0,0,0,1.89-.66c-.29,1.43-1.3,2.79-3.15,4.14l.39.48c2.32-1.61,3.62-3.72,3.62-5.79C147.39,72.34,146.34,71.11,144.71,71.11Zm0,4.3a1.85,1.85,0,1,1,0-3.7c1.27,0,2,1,2,2.34C146.7,75.07,145.6,75.41,144.75,75.41Z"/><polygon class="cls-1" points="150.11 73.13 150.48 73.6 152.27 72.2 152.27 79.86 152.92 79.86 152.92 71.11 152.63 71.11 150.11 73.13"/><polygon class="cls-1" points="110.61 55.44 100.42 43.54 99.11 43.54 99.11 57.94 100.63 57.94 100.63 46.08 110.74 57.94 112.13 57.94 112.13 43.54 110.61 43.54 110.61 55.44"/><polygon class="cls-1" points="119.06 51.39 125.14 51.39 125.14 49.98 119.06 49.98 119.06 44.96 125.35 44.96 125.35 43.54 117.48 43.54 117.48 57.94 125.52 57.94 125.52 56.5 119.06 56.5 119.06 51.39"/><polygon class="cls-1" points="145 54.45 144.98 54.45 140.63 43.54 139.22 43.54 134.96 54.5 134.94 54.5 130.61 43.54 129.01 43.54 134.77 58.04 135.1 58.04 139.92 45.78 144.77 58.04 145.11 58.04 150.83 43.54 149.22 43.54 145 54.45"/><path class="cls-1" d="M174.48,43.54H172.9v8.29c0,3.12-1.46,4.88-4.45,4.88S164,55,164,51.83V43.54h-1.58v8.29c0,4,2.11,6.29,6.08,6.29s6-2.51,6-6.29V43.54Z"/><polygon class="cls-1" points="191.16 55.44 180.97 43.54 179.66 43.54 179.66 57.94 181.18 57.94 181.18 46.08 191.29 57.94 192.68 57.94 192.68 43.54 191.16 43.54 191.16 55.44"/><rect class="cls-1" x="198.03" y="43.54" width="1.58" height="14.39"/><polygon class="cls-1" points="209.66 54.75 209.64 54.75 204.95 43.54 203.37 43.54 209.47 58.08 209.83 58.08 215.91 43.54 214.32 43.54 209.66 54.75"/><polygon class="cls-1" points="221.25 51.39 227.33 51.39 227.33 49.98 221.25 49.98 221.25 44.96 227.54 44.96 227.54 43.54 219.67 43.54 219.67 57.94 227.71 57.94 227.71 56.5 221.25 56.5 221.25 51.39"/><path class="cls-1" d="M237.83,51a3.49,3.49,0,0,0,2.72-3.55c0-2.19-1.5-3.86-4.39-3.86h-3.78V57.93H234V51.39h1.33c1.22,0,2.11.47,3.44,2.57l2.53,4h1.88l-2.79-4.3C239.18,51.82,238.75,51.44,237.83,51Zm-2.39-1H234V44.94h2c1.83,0,3,.72,3,2.49C238.92,49.52,237.42,50,235.44,50Z"/><path class="cls-1" d="M250.7,49.85c-2.38-1.2-2.62-2-2.62-3,0-1.25,1-2.09,2.51-2.09a4.9,4.9,0,0,1,3.25,1.29V44.28a6,6,0,0,0-3.21-.93c-2.4,0-4.16,1.52-4.16,3.57,0,1.83.87,2.93,3.12,4.09,2.79,1.46,3.19,2.17,3.19,3.4a2.3,2.3,0,0,1-2.51,2.3,5,5,0,0,1-3.73-1.83v2a6.16,6.16,0,0,0,3.73,1.27c2.47,0,4.12-1.6,4.12-3.73C254.4,52.43,253.68,51.39,250.7,49.85Z"/><rect class="cls-1" x="258.98" y="43.54" width="1.58" height="14.39"/><polygon class="cls-1" points="264.6 44.94 269.69 44.94 269.69 57.94 271.27 57.94 271.27 44.94 276.42 44.94 276.42 43.54 264.6 43.54 264.6 44.94"/><polygon class="cls-1" points="285.31 48.86 281.03 43.54 279.13 43.54 284.51 50.25 284.51 57.94 286.13 57.94 286.13 50.25 291.49 43.54 289.59 43.54 285.31 48.86"/><path class="cls-1" d="M106.05,25.16a3.82,3.82,0,0,0,2.86-3.8c0-2.76-2.13-4.41-5.34-4.41H99.11V34.22h5.27c3.17,0,6-1.44,6-4.63C110.38,27.31,108.73,25.54,106.05,25.16ZM101,18.63h2.2c2.56,0,3.75.91,3.75,2.91,0,1.77-1.22,3.09-4.05,3.09H101Zm3,13.92h-3V26.27h2.76c3.27,0,4.66,1.17,4.66,3.17C108.4,31.62,106.78,32.55,104,32.55Z"/><path class="cls-1" d="M128.82,26.91c0,3.75-1.75,5.85-5.34,5.85s-5.34-2-5.34-5.85V17h-1.9v10c0,4.83,2.53,7.55,7.29,7.55s7.19-3,7.19-7.55V17h-1.9v10Z"/><path class="cls-1" d="M152.34,33v-2.1a11.12,11.12,0,0,1-6,1.77,6.86,6.86,0,0,1-7.17-7.07,7,7,0,0,1,7.19-7.12,11.84,11.84,0,0,1,5.85,1.65V18.09a14.13,14.13,0,0,0-5.87-1.37,8.83,8.83,0,0,0-9.14,8.94,8.69,8.69,0,0,0,9.09,8.79A13.11,13.11,0,0,0,152.34,33Z"/><polygon class="cls-1" points="163.01 25.26 170.73 16.95 168.35 16.95 160.78 25.06 160.78 16.95 158.88 16.95 158.88 34.22 160.78 34.22 160.78 25.64 169.64 34.22 172.25 34.22 163.01 25.26"/><rect class="cls-1" x="177.68" y="16.95" width="1.9" height="17.27"/><polygon class="cls-1" points="200.81 31.24 188.57 16.95 187 16.95 187 34.22 188.83 34.22 188.83 19.99 200.96 34.22 202.63 34.22 202.63 16.95 200.81 16.95 200.81 31.24"/><path class="cls-1" d="M218.37,18.42a11.9,11.9,0,0,1,5.95,1.7v-2a13.49,13.49,0,0,0-5.87-1.42,8.79,8.79,0,0,0-9.14,9c0,4.43,3,8.76,9.22,8.76A13.49,13.49,0,0,0,224.68,33V26h-5.42v1.67h3.52v4.21a10.91,10.91,0,0,1-4.25.89,6.91,6.91,0,0,1-7.24-7.24A6.94,6.94,0,0,1,218.37,18.42Z"/><polygon class="cls-1" points="246.13 34.22 246.13 16.95 244.23 16.95 244.23 24.65 233.75 24.65 233.75 16.95 231.85 16.95 231.85 34.22 233.75 34.22 233.75 26.4 244.23 26.4 244.23 34.22 246.13 34.22"/><path class="cls-1" d="M251.67,34.22h2L256,28.8h7.85l2.43,5.42h1.95l-7.7-17.37h-1.34ZM263,27.11h-6.36l3.09-7.34Z"/><polygon class="cls-1" points="287.58 34.22 289.48 34.22 289.48 16.95 287.69 16.95 281.61 24.52 275.51 16.95 273.71 16.95 273.71 34.22 275.61 34.22 275.61 19.97 275.66 19.97 281.43 27.18 281.76 27.18 287.53 19.97 287.58 19.97 287.58 34.22"/><path class="cls-1" d="M301.47,24.52c-2.86-1.44-3.14-2.43-3.14-3.57,0-1.49,1.19-2.51,3-2.51a5.91,5.91,0,0,1,3.9,1.54V17.83a7.26,7.26,0,0,0-3.85-1.11c-2.89,0-5,1.82-5,4.28,0,2.2,1,3.52,3.75,4.91C303.49,27.66,304,28.52,304,30a2.76,2.76,0,0,1-3,2.76,6.05,6.05,0,0,1-4.48-2.2v2.38A7.37,7.37,0,0,0,301,34.45c3,0,4.94-1.93,4.94-4.48C305.9,27.62,305,26.37,301.47,24.52Z"/><polygon class="cls-1" points="314.32 26.4 324.8 26.4 324.8 34.22 326.7 34.22 326.7 16.95 324.8 16.95 324.8 24.65 314.32 24.65 314.32 16.95 312.42 16.95 312.42 34.22 314.32 34.22 314.32 26.4"/><rect class="cls-1" x="334.13" y="16.95" width="1.9" height="17.27"/><path class="cls-1" d="M350,25.84a4.18,4.18,0,0,0,3.27-4.25c0-2.64-1.8-4.64-5.27-4.64h-4.53V34.22h1.9V26.37H347c1.47,0,2.53.56,4.13,3.09l3,4.76h2.25L353,29.06C351.61,26.88,351.11,26.42,350,25.84Zm-2.86-1.14h-1.77V18.62h2.38c2.2,0,3.57.86,3.57,3C351.31,24.12,349.51,24.7,347.13,24.7Z"/><polygon class="cls-1" points="363.73 32.5 363.73 26.37 371.02 26.37 371.02 24.68 363.73 24.68 363.73 18.65 371.27 18.65 371.27 16.95 361.83 16.95 361.83 34.22 371.47 34.22 371.47 32.5 363.73 32.5"/><path class="cls-1" d="M44.12,48.66c.87-1.79,1.41-3.43,1-4.13a14,14,0,0,0-1.82,3.28C44,47.4,44.32,47.68,44.12,48.66Z"/><path class="cls-1" d="M38.39,48.26c.56-.71,1.2-1.73,2.79.22a12,12,0,0,1-.58-6.35C39.53,42.76,38.48,44.48,38.39,48.26Z"/><path class="cls-1" d="M34,44.35a4.92,4.92,0,0,0,1.24,4.53c-.23-.89.32-1.17,1.68-.85A7.8,7.8,0,0,1,34,44.35Z"/><path class="cls-1" d="M46.73,51.63A3,3,0,0,0,47.44,50a4.36,4.36,0,0,1-2,1.07C46.29,51,46.73,51.2,46.73,51.63Z"/><path class="cls-1" d="M30.57,48.7a3.76,3.76,0,0,0,.94,2.8c.21-.63.78-1,1.68-1A5.9,5.9,0,0,1,30.57,48.7Z"/><path class="cls-1" d="M38.24,40.85a10.47,10.47,0,0,0-1.87,3.8,2.53,2.53,0,0,1-.3-1.49,4.06,4.06,0,0,1,.36-1.64c.56-1.54.4-3.29-.89-4l.13,1.11a1.51,1.51,0,0,1-1.08,1.51c-1.89.92-3,3.89-3,4.88A7,7,0,0,0,32,47.51a4.6,4.6,0,0,1-1.73-3c-1,1.34-1.76,2.21-1.76,4a8.45,8.45,0,0,0,3.6,6.38,2,2,0,0,0-.54,1.26,1.9,1.9,0,0,0,2,2,.9.9,0,0,0,.4-.09A37.49,37.49,0,0,1,35.57,66l.74,11.1c.06,2,.11,4.06.13,6.29A2.34,2.34,0,0,0,35.78,85c0,1.56,1.54,2.66,3.21,2.66S42.2,86.56,42.2,85a2.23,2.23,0,0,0-.43-1.34c.08-2.9.2-5.58.37-8.07l.77-7.77A46.33,46.33,0,0,1,45.14,58a1,1,0,0,0,.3,0,1.91,1.91,0,0,0,2.08-1.77,2.12,2.12,0,0,0-.69-1.41A10.18,10.18,0,0,0,49.65,49a3.21,3.21,0,0,0-1.89-3.3l-.22.38-.15.27c0-.31,0-.67,0-1.08,0-2.47-1.41-4.14-3-5.79.06,2.44-.23,2.15-1.38,4,.2-1.54.52-2.27-.1-3.9-1-2.57-2.62-3.26-4.88-4.38C39.36,37.43,39.87,38.53,38.24,40.85Zm3.7,27.66-.42,3.81Q41.08,77,40.9,82.88c0,.46-.82.56-1.39.52-.25,0-.36.88,0,.88,1.45,0,1.4-.57,1.68.15a1.33,1.33,0,0,1,.13.58A2.1,2.1,0,0,1,39,86.79,2.11,2.11,0,0,1,36.65,85a1.51,1.51,0,0,1,.33-.9c.27-.28.17.17,1.42.17.32,0,.25-.88,0-.88-.48,0-1.09-.22-1.09-.65,0-2-.07-3.92-.12-5.72l-.42-7.53c-.42-5.46-1.1-9.46-2-12a5.59,5.59,0,0,1,4.55-2,6.55,6.55,0,0,1,5.11,2.06A47.48,47.48,0,0,0,41.94,68.51Zm3.49-11.32c-.14,0-.33-.17-.54-.37a7.49,7.49,0,0,0-5.61-2.21,6.52,6.52,0,0,0-5,2.11c-.2.22-.4.53-.59.53l-.09,0a1,1,0,0,1-1.11-1.12C32.48,55,36,53,39.33,53a11.09,11.09,0,0,1,6.49,2.13.41.41,0,0,0,.2.17,1.59,1.59,0,0,1,.64,1C46.65,56.79,46.18,57.19,45.43,57.19Zm-3-14.95a15.48,15.48,0,0,0-.25,3.47c0,1.5.25,1.53.86.1C43.54,44,44.78,43,45.22,41.6a6.17,6.17,0,0,1,1.36,3.65c0,2.53-.88,3.18-2.26,5.17,2.15-1.34,2.6-1.39,3.77-3.52a2.63,2.63,0,0,1,.7,2.07,9.37,9.37,0,0,1-2.61,5.33,12.4,12.4,0,0,0-6.85-2.18,11.86,11.86,0,0,0-6.54,2.16,7.62,7.62,0,0,1-3.37-5.76A3.72,3.72,0,0,1,30,46.41c.93,1.89,2.81,2.59,4.58,3.41-1.33-1.8-2-2.47-2-4.86,0-.78,1-3.36,2.46-4.09a2.21,2.21,0,0,0,.93-.77c.06,1-.7,1.75-.7,2.82,0,2.21.6,2.43,1.85,3.87a10.48,10.48,0,0,1,1.2-4.45c1-1.63,2.27-3,1.79-5.14A5.16,5.16,0,0,1,42.38,42.24Z"/><path class="cls-1" d="M40.55,71.66l.24-2.51c.44-4,1.15-7.59,1.71-10.83.15-.86-.92-.94-1.07-.16A111.37,111.37,0,0,0,40.16,70l-.06.81-.05.74C40,71.93,40.46,72,40.55,71.66Z"/><path class="cls-1" d="M38.67,57.49,38.92,72a.29.29,0,1,0,.57,0l.42-14.46A.63.63,0,1,0,38.67,57.49Z"/><path class="cls-1" d="M38.32,70a111.37,111.37,0,0,0-1.27-11.82c-.15-.79-1.22-.7-1.07.16.56,3.24,1.27,6.85,1.71,10.83l.23,2.51c.09.35.54.27.51-.13l0-.74Z"/><path class="cls-1" d="M62.24,23.21c2.59-.43,3.06-2.63.95-3.65a.14.14,0,1,0-.14.25,1.79,1.79,0,0,1,1,1.29.83.83,0,0,0-.29-.11.15.15,0,1,0,0,.29.3.3,0,0,1,.3.3,2,2,0,0,1-1.41,1.23.58.58,0,0,0,0-.58c-.07-.18-.23-.08-.15.1s0,.34-.29.63C62,23.09,62.06,23.24,62.24,23.21Z"/><path class="cls-1" d="M53.33,10.52c-.31,0-.76.53-.59.73S53.05,10.74,53.33,10.52Z"/><path class="cls-1" d="M57.68,34.59c.57-.16.74,0,1.12.28.21.15-.67-.37,1.21-1.19C58.18,33.93,57,34.62,57.68,34.59Z"/><path class="cls-1" d="M57,32.44a5,5,0,0,0-1.94.24c-.22.1.17.27.41.18a4.08,4.08,0,0,1,1.53-.3C57.26,32.58,57.27,32.46,57,32.44Z"/><path class="cls-1" d="M59,33.47a5,5,0,0,0-1.94.24c-.22.11.17.27.41.18a4.08,4.08,0,0,1,1.53-.3C59.24,33.61,59.24,33.49,59,33.47Z"/><path class="cls-1" d="M51.34,13.54c1-.15,2.55-1.39,3.53-1.83s1.74-.25,2.39-1.36c0,.11,0,.22,0,.35,0,1.31-1.08,2-2,2.85a4.34,4.34,0,0,1-.59.47,41.75,41.75,0,0,0-3.38,3.87,6,6,0,0,0-.7,2.25A7.68,7.68,0,0,0,50.76,22a5.42,5.42,0,0,0,1.58,3.08l1.44,1.05a17.69,17.69,0,0,0,1.83,1.09h0s.33.19.77.4l.06,0h0a5.24,5.24,0,0,0,1.84.57l.26,0a9.93,9.93,0,0,1,.89,2.23c-.06.57,0,1-.24,1.19a11.9,11.9,0,0,1-2.77.2c-1.45,0-2.76.47-3.07,1.56-.13.47.83.08,1.17,0a.71.71,0,0,1,.53.22,1.55,1.55,0,0,0-.33.57c-.13.47.83.08,1.17,0a1.52,1.52,0,0,0-.43.85,1.27,1.27,0,0,0,.31.9c.33.41,1.16-.62,1.8-.62.34,0,.7.57.87.74s.89.72,1,.26a2.9,2.9,0,0,1,1.39-1.86l.19-.1c.5-.28.42-.51.42-1a4,4,0,0,1,.16-1.82,1.06,1.06,0,0,0,.12-.76h0c.17-.43.4-.56.45-1.11.2.18.33.14.42,0,1.16.93,2.22,1.87,3.11,2.59A5.07,5.07,0,0,0,68,33.7c.7,0,2.73-.46,2.73-1.54a1.9,1.9,0,0,0-.46-.89,21.27,21.27,0,0,1-2.77-3.72c.66.06,1.28.09,1.83.09.33,0,2.85-.15,2.06-.8a14.49,14.49,0,0,1-3-2.83,3.79,3.79,0,0,0,.46-1.9,2.77,2.77,0,0,0-.68-1.67,3.13,3.13,0,0,0-.8-1.41c.28-.52-1.8-1.56-2.2-1.69.15-.66-2.37-.94-2.82-.94a3.74,3.74,0,0,0-2.46.68.3.3,0,0,0-.11.12,2.47,2.47,0,0,0-1.12.53v0c-.18.13-2.43,1.06-2.63,1.16a5.7,5.7,0,0,1-.55.42l-.14.06a2.85,2.85,0,0,1,.22-1.46,12.1,12.1,0,0,1,2-2.83c.47-.6.93-1.21,1.36-1.83a6.23,6.23,0,0,0,1-2.28,3.64,3.64,0,0,0-1-3,3.57,3.57,0,0,0-2.71-1.3c-1.18,0-1.76.67-2.69,1.21a3.09,3.09,0,0,0-1.15.63c-.41.42-.24,1.29-.29,1.88-.22.38-.54.77-.79,1.13-.46.64-1.07.88-1.07,1.3a.83.83,0,0,0,.18.5A1.46,1.46,0,0,0,51.34,13.54ZM54.9,33.08a3.12,3.12,0,0,0-.81,0c-.15,0-.15-.09.29-.46a6.53,6.53,0,0,1,2.6-.53c.33,0,1.77-.11,2.36-.14s.4-1.46.41-1.91c0,0-.8-1.74-.82-1.79H59c.09,0,.21,0,.27,0s.67,1.5.67,1.54.05.35.08.79a5.31,5.31,0,0,1,0,1.57c-.2.64-.91.55-1.34.61a15.94,15.94,0,0,1-1.69,0,6.13,6.13,0,0,0-1.46.46A5.63,5.63,0,0,1,54.9,33.08Zm7.63-5.56c.76.38.06-1.1,0-1.28a18.15,18.15,0,0,0,2.05.76c.4.37.83.83.83,1.23,0,.25,0,.47-.63.47a2.78,2.78,0,0,1-2-.67A1,1,0,0,0,62.53,27.52Zm6.37,2.95a10.61,10.61,0,0,1,1.29,1.67c0,.58-1.77,1-2.15,1-.73,0-4.61-3.45-5.3-4a4.87,4.87,0,0,0,0-.54,3.07,3.07,0,0,0,1.38.49,33.06,33.06,0,0,0,3,2.56.15.15,0,0,0,.19-.22c-.89-.74-1.81-1.47-2.63-2.3h.07a1.09,1.09,0,0,0,1-.39c.73.88,1.57,1.69,2.36,2.51a.15.15,0,0,0,.21-.2,28.64,28.64,0,0,1-2.46-2.86,2.84,2.84,0,0,0-.47-1c.52.12,1,.2,1.53.29A12.41,12.41,0,0,0,68.9,30.47ZM62.44,16.78a5.71,5.71,0,0,1,2.13.43c-.13.16.12.42.38.48a3.8,3.8,0,0,1,2,1.1c-.08.11,0,.25.09.37a2.08,2.08,0,0,1,.77,1.4c0,.3.7.61.7,1.52a3.69,3.69,0,0,1-.34,1.48,9.06,9.06,0,0,1-.66-.9c.54.05.46-1.48-.56-2.15.07-.19-.21-.6-.31-.76a2.69,2.69,0,0,0-2-1c.08-.58-1.69-1.13-2.05-1.17a2.06,2.06,0,0,0-1.08,0c.07-.17-.26-.34-.79-.39A2.76,2.76,0,0,1,62.44,16.78ZM54.19,8.11a.94.94,0,0,1,.18-.17,3.13,3.13,0,0,1,1.81-.75,3.39,3.39,0,0,1,3.27,3.41s0,0,0,0a3.54,3.54,0,0,0-.07.58,3.39,3.39,0,0,1-.21.61,7.23,7.23,0,0,1-.51.84c-.38.59-.79,1.15-1.2,1.72-.65.89-1.38,1.75-2,2.68a3.46,3.46,0,0,0-.6,1.49A5.82,5.82,0,0,0,55,20a.48.48,0,0,0,.22.34.19.19,0,0,0,.29-.11v0l0,0a.19.19,0,0,0,.29-.11l.07-.19a20.74,20.74,0,0,0,2.71-1.46A2.37,2.37,0,0,1,61,17.79c-.11.26-.29.53.42.29a3.07,3.07,0,0,1,2.64.5c-1.18.7-.48.54.09.48a2.55,2.55,0,0,1,2.17,1l-.35,0c-.4,0-1.28.07-.06.44.92.28,1.41.71,1.47,1.54L67,21.88c-.33-.13-1-.65-.35.43.28.44.58.87.89,1.29a2.31,2.31,0,0,1-.09.7,1.33,1.33,0,0,1-1.25.7,1.87,1.87,0,0,0,0-1.56.15.15,0,1,0-.27.11,1.24,1.24,0,0,1-1.12,1.71,2.84,2.84,0,0,1-.66-.08A1.65,1.65,0,0,0,64.5,24c0-.19-.23-.19-.28,0a1.12,1.12,0,0,1-1,.87.15.15,0,0,0,0,.29A1.61,1.61,0,0,0,64,24.9l-.19.28c-.25.34,1,.37,1,.37a1.5,1.5,0,0,0,.37,0,16.84,16.84,0,0,0,3.36.56c.19,0,.39-.21.19-.22a17,17,0,0,1-3.07-.55l.16-.13a.13.13,0,0,0,.15.13c1.34,0,1.61-.55,1.8-.9a3.58,3.58,0,0,0,.08-.43,22.94,22.94,0,0,0,2.81,2.94c.17.13-.84.2-1.34.2a16.28,16.28,0,0,1-9.41-2.9c-1.59-1.21-1.38-.67-.2.27l1.64,1.24c.56.43.93.86,1,1.19s-1.2-.77-.18.56a2.39,2.39,0,0,1,.08,1.61.81.81,0,0,1-.31-.37c-.29-.7-.51-.55-.26.22a1.68,1.68,0,0,1,0,1.13h0l0,.08a5.35,5.35,0,0,0-.23,1,1.89,1.89,0,0,1-.18.43.74.74,0,0,0-.08.22c-.08.67-.13,1.33-.13,1.58a.65.65,0,0,1-.38.71l-.19.1A3.24,3.24,0,0,0,58.89,36l-.09-.08c-.36-.34-.6-.9-1.34-.9a2.92,2.92,0,0,0-1.45.57.66.66,0,0,1-.08-.46c.32-1.1,1.35-1,.63-1.19a2.89,2.89,0,0,0-1.21,0,2.71,2.71,0,0,1,2.32-.86c.4,0,.8,0,1.14.05,1,0,1.62-.36,1.77-1.26,0-.13-.17-.45-.19-.68V31.1c0-.29,0-.78,0-1.13,0-.2,0-.35,0-.4h0c-.09-.26-.19-.51-.22-.62l0-.07c-.38-1.08-1.13-1.73-1.45-2.84A2.36,2.36,0,0,0,58.49,25a.2.2,0,1,0-.37.17c.07.14,0,.35-.14.57l-.11,0a4.3,4.3,0,0,1-2.7-1.39.2.2,0,1,0-.27.3A11.49,11.49,0,0,0,58,26.56c.14.09.82.8.65,1.16h0a11.07,11.07,0,0,1-4-2.18c0,.17-.08.34-.12.51a7.8,7.8,0,0,1-3.18-3.83,8.4,8.4,0,0,1-.24-2,7.86,7.86,0,0,1,.55-2,33,33,0,0,1,3.23-3.72l.56-.49c1-.86,2.27-1.7,2.27-3.35a3.69,3.69,0,0,0-.29-1.43c-.27-.73-.33-1.09-.55.05s-.82,1.53-1.64,1.56l.27-.17s-.27.07-.68-.46c0-.12-.05-.26,0-.3a2.47,2.47,0,0,0,.65-.46.37.37,0,1,0-.34-.66l-.08,0h0a5.68,5.68,0,0,1-.71.23.22.22,0,0,1-.17-.13,2.19,2.19,0,0,1-.09-.74ZM55,9.19a.1.1,0,1,1,.1.1A.1.1,0,0,1,55,9.19Zm-3.89,3.13a8.42,8.42,0,0,0,1.11-1.27c.44-.64.37-.91.62-.91a1.32,1.32,0,0,0,.9-.34.72.72,0,0,1,.74.42.54.54,0,0,1,0,.22.43.43,0,0,1,0,.11,1.21,1.21,0,0,1-.13-.25c-.15-.45-.59.5-2.21,1.87-.15.13,0,.28.15.14l1.86-1.54a.79.79,0,0,0,.19.25c0,.14,0,.25-.06.34-1.16.64-2.5,1.79-3.08,1.79-.36,0-.53-.07-.53-.37S50.83,12.55,51.06,12.32Z"/><path class="cls-1" d="M16.3,22.34c.08-.18-.08-.28-.15-.1a.61.61,0,0,0,0,.58,2,2,0,0,1-1.41-1.23.3.3,0,0,1,.3-.3A.15.15,0,0,0,15,21a.68.68,0,0,0-.29.11,1.81,1.81,0,0,1,1-1.29.14.14,0,1,0-.14-.25c-2.11,1-1.64,3.22,1,3.65.18,0,.26-.13.12-.25C16.29,22.68,16.25,22.48,16.3,22.34Z"/><path class="cls-1" d="M26,11.25c.18-.21-.27-.73-.59-.73C25.65,10.74,25.81,11.42,26,11.25Z"/><path class="cls-1" d="M19.9,34.87A1.05,1.05,0,0,1,21,34.59c.69,0-.5-.67-2.33-.9C20.58,34.5,19.7,35,19.9,34.87Z"/><path class="cls-1" d="M23.23,32.86c.24.09.63-.08.41-.18a5.06,5.06,0,0,0-1.94-.24c-.27,0-.26.14,0,.12A4.08,4.08,0,0,1,23.23,32.86Z"/><path class="cls-1" d="M21.26,33.89c.24.09.63-.08.41-.18a5.06,5.06,0,0,0-1.94-.24c-.27,0-.26.14,0,.12A4.33,4.33,0,0,1,21.26,33.89Z"/><path class="cls-1" d="M13,32.33c.89-.72,1.95-1.65,3.11-2.59.09.17.22.21.42,0,.06.55.28.67.45,1.11h0a1,1,0,0,0,.12.76,4,4,0,0,1,.16,1.82c0,.45-.08.68.42,1l.19.1a2.93,2.93,0,0,1,1.39,1.86c.13.46.89-.13,1-.26s.54-.74.87-.74c.64,0,1.47,1,1.8.62a1.27,1.27,0,0,0,.31-.9,1.59,1.59,0,0,0-.43-.85c.34,0,1.3.44,1.17,0a1.55,1.55,0,0,0-.33-.57.71.71,0,0,1,.53-.22c.34,0,1.3.44,1.17,0-.31-1.1-1.61-1.56-3.07-1.56a11.9,11.9,0,0,1-2.77-.2c-.25-.17-.18-.62-.24-1.19a9.93,9.93,0,0,1,.89-2.23l.26,0a5.24,5.24,0,0,0,1.84-.57h0l.06,0c.44-.21.77-.4.77-.4h0a16.07,16.07,0,0,0,1.83-1.09l1.44-1.05A5.39,5.39,0,0,0,27.94,22a7.72,7.72,0,0,0,.16-1.86,6.08,6.08,0,0,0-.7-2.25A41.75,41.75,0,0,0,24,14a3.69,3.69,0,0,1-.59-.47c-.92-.84-2-1.53-2-2.85,0-.13,0-.24,0-.35.65,1.11,1.46.94,2.39,1.36s2.57,1.68,3.53,1.83a1.11,1.11,0,0,0,.85-.28.75.75,0,0,0,.18-.5c0-.42-.6-.66-1.07-1.3-.26-.36-.57-.75-.79-1.13-.05-.59.12-1.46-.29-1.88a3.24,3.24,0,0,0-1.15-.63c-.92-.54-1.51-1.21-2.69-1.21a3.6,3.6,0,0,0-2.71,1.3,3.64,3.64,0,0,0-1,3,6.67,6.67,0,0,0,1,2.28c.43.63.9,1.23,1.36,1.83a12.1,12.1,0,0,1,2,2.83,2.85,2.85,0,0,1,.22,1.46l-.14-.06a5.7,5.7,0,0,1-.55-.42c-.2-.11-2.45-1-2.63-1.16v0a2.42,2.42,0,0,0-1.12-.53A.25.25,0,0,0,18.7,17a3.76,3.76,0,0,0-2.46-.68c-.45,0-3,.29-2.82.94-.4.13-2.48,1.17-2.2,1.69a3.27,3.27,0,0,0-.8,1.41A2.8,2.8,0,0,0,9.74,22a3.71,3.71,0,0,0,.46,1.9,14.22,14.22,0,0,1-2.95,2.83c-.79.66,1.72.8,2.06.8.56,0,1.18,0,1.83-.09a21.27,21.27,0,0,1-2.77,3.72,1.82,1.82,0,0,0-.46.89c0,1.08,2,1.54,2.73,1.54S12.07,33.06,13,32.33Zm3.2-4.81A.88.88,0,0,0,16,28a2.83,2.83,0,0,1-2,.67c-.64,0-.63-.22-.63-.47s.43-.85.83-1.23a18.9,18.9,0,0,0,2.05-.76C16.11,26.41,15.41,27.9,16.18,27.52ZM19,30.05c0,.44-.19,1.88.41,1.91s2,.15,2.36.14a6.6,6.6,0,0,1,2.6.53c.44.37.44.46.29.46a3.12,3.12,0,0,0-.81,0l-.62.17a6,6,0,0,0-1.46-.46,13.66,13.66,0,0,1-1.69,0c-.43-.06-1.14,0-1.34-.61a5.3,5.3,0,0,1,0-1.57c0-.44.08-.79.08-.79s.63-1.42.67-1.54a.84.84,0,0,1,.27,0h.1S19,30,19,30.05Zm7-19.91c.25,0,.18.26.62.91a6.75,6.75,0,0,0,1.11,1.27c.23.23.41.3.41.45,0,.3-.17.37-.53.37-.58,0-1.91-1.15-3.08-1.79,0-.09,0-.2-.06-.34a.79.79,0,0,0,.19-.25l1.86,1.54c.15.13.31,0,.15-.14-1.61-1.37-2.06-2.33-2.21-1.87a1,1,0,0,1-.13.25.43.43,0,0,1,0-.11.42.42,0,0,1,.05-.22A.75.75,0,0,1,25,9.79,1.3,1.3,0,0,0,25.91,10.14Zm-15,10.42a2.12,2.12,0,0,1,.77-1.4.28.28,0,0,0,.09-.37,3.84,3.84,0,0,1,2-1.1c.26-.06.51-.32.38-.48a5.67,5.67,0,0,1,2.13-.43,2.7,2.7,0,0,1,1.7.42c-.53.05-.85.22-.79.39a2.15,2.15,0,0,0-1.08,0c-.35.05-2.12.59-2.05,1.17a2.73,2.73,0,0,0-2,1c-.1.16-.38.57-.31.76-1,.67-1.1,2.2-.56,2.15a11.08,11.08,0,0,1-.66.9,3.69,3.69,0,0,1-.34-1.48C10.23,21.17,10.91,20.87,10.93,20.56ZM9.41,27.11c-.5,0-1.51-.07-1.34-.2A22.2,22.2,0,0,0,10.88,24a4,4,0,0,0,.08.43c.18.35.46.9,1.8.9a.13.13,0,0,0,.15-.13l.16.13a16,16,0,0,1-3.07.55c-.19,0,0,.24.19.22a16.84,16.84,0,0,0,3.36-.56,1.45,1.45,0,0,0,.37,0s1.27,0,1-.37a2,2,0,0,1-.19-.28,1.63,1.63,0,0,0,.66.26.15.15,0,0,0,.05-.29,1.12,1.12,0,0,1-1-.87c-.05-.18-.25-.18-.28,0a1.68,1.68,0,0,0,.39,1.17,2.91,2.91,0,0,1-.66.08,1.24,1.24,0,0,1-1.12-1.71.15.15,0,1,0-.27-.11,1.91,1.91,0,0,0,0,1.56,1.33,1.33,0,0,1-1.25-.7,2.69,2.69,0,0,1-.09-.7c.31-.42.61-.85.89-1.29.67-1.08,0-.56-.35-.43l-.35.14c.07-.84.55-1.27,1.47-1.54,1.22-.36.34-.46-.06-.44l-.35,0a2.55,2.55,0,0,1,2.17-1c.57.05,1.28.22.09-.48a3.09,3.09,0,0,1,2.64-.5c.71.24.53,0,.42-.29a2.35,2.35,0,0,1,2.35.68,23.44,23.44,0,0,0,2.71,1.46l.07.19a.19.19,0,0,0,.29.11l0,0v0a.19.19,0,0,0,.29.11A.48.48,0,0,0,23.7,20a5.82,5.82,0,0,0,.09-1.47,3.5,3.5,0,0,0-.6-1.49c-.58-.94-1.32-1.79-2-2.68-.41-.56-.82-1.13-1.2-1.72a8.94,8.94,0,0,1-.51-.84,2.59,2.59,0,0,1-.21-.61,3.54,3.54,0,0,0-.07-.58l0,0a3.39,3.39,0,0,1,3.27-3.41,3.15,3.15,0,0,1,1.81.75.72.72,0,0,1,.18.17l0,.1a2.14,2.14,0,0,1-.09.74c0,.07-.09.13-.17.13a6.26,6.26,0,0,1-.71-.23h0l-.08,0A.44.44,0,0,0,23,9a.42.42,0,0,0,.19.48,2.41,2.41,0,0,0,.65.46c.1,0,.08.19.05.3-.41.53-.68.46-.68.46l.27.17c-.81,0-1.42-.42-1.64-1.56s-.28-.78-.55-.05A3.73,3.73,0,0,0,21,10.69c0,1.64,1.28,2.49,2.27,3.35l.56.49A32.17,32.17,0,0,1,27,18.25a7.86,7.86,0,0,1,.55,2,9,9,0,0,1-.24,2,7.84,7.84,0,0,1-3.18,3.83,4.7,4.7,0,0,1-.12-.51,11.07,11.07,0,0,1-4,2.18h0c-.17-.36.5-1.07.65-1.16a11.06,11.06,0,0,0,3.09-1.92.2.2,0,0,0-.27-.3,4.22,4.22,0,0,1-2.7,1.39l-.11,0c-.09-.23-.21-.43-.14-.57A.2.2,0,0,0,20.2,25a2.34,2.34,0,0,0-.13,1.08c-.32,1.11-1.07,1.76-1.45,2.84l0,.07c0,.1-.13.36-.22.62h0c0,.05,0,.2,0,.4s0,.84-.05,1.13v.06c0,.23-.21.56-.19.68.16.91.81,1.28,1.77,1.26.34,0,.74,0,1.14,0a2.69,2.69,0,0,1,2.32.86,3.06,3.06,0,0,0-1.21,0c-.71.17.31.09.63,1.19a.66.66,0,0,1-.08.46A3,3,0,0,0,21.23,35c-.74,0-1,.56-1.34.9L19.8,36a3.21,3.21,0,0,0-1.48-1.75l-.19-.1a.65.65,0,0,1-.38-.71c0-.25-.05-.91-.13-1.58a.65.65,0,0,0-.08-.22,2.09,2.09,0,0,1-.18-.43,7.47,7.47,0,0,0-.23-1l0-.08h0a1.62,1.62,0,0,1,0-1.13c.25-.76,0-.92-.26-.22a.81.81,0,0,1-.31.37,2.39,2.39,0,0,1,.08-1.61c1-1.33-.18-.27-.18-.56s.38-.76.95-1.19L19,24.49c1.17-.95,1.38-1.49-.2-.27A16.29,16.29,0,0,1,9.41,27.11ZM23.75,9.19a.1.1,0,1,1-.1-.1A.1.1,0,0,1,23.75,9.19Zm-15.23,23a9.54,9.54,0,0,1,1.29-1.67,12.48,12.48,0,0,0,2-3c.5-.08,1-.17,1.53-.29a2.84,2.84,0,0,0-.47,1A26.24,26.24,0,0,1,10.44,31a.15.15,0,0,0,.21.2c.78-.82,1.63-1.63,2.36-2.51a1.09,1.09,0,0,0,1,.39h.07c-.82.83-1.74,1.55-2.63,2.3-.15.12,0,.34.19.22a31.53,31.53,0,0,0,3-2.56A3.07,3.07,0,0,0,16,28.57c0,.17,0,.36,0,.54-.69.55-4.56,4-5.3,4C10.28,33.1,8.52,32.72,8.52,32.14Z"/><path class="cls-1" d="M38,96.17l1.11.53,1.11-.53c39.15-18.74,38-56.75,38-58.24V0H0V37.8C0,38.19-1.95,77.05,38,96.17ZM1.65,1.63H76.54V38c0,.38,1.78,38.11-37.05,56.69l-.4.19-.4-.19C-.11,76.12,1.62,38.27,1.65,37.84Z"/><path class="cls-1" d="M22.57,28.79l-2,1.46a1.61,1.61,0,0,0-.08.23c0,.05,0,.1,0,.15h.09l4.19-3c-.53.31-1.16.66-2,1.06Z"/><path class="cls-1" d="M4.43,46.42,5.26,51,39.48,26.17,72.94,51l.84-4.59a45.54,45.54,0,0,0,.58-8.13V4H3.84V38.12A46.61,46.61,0,0,0,4.43,46.42ZM73.38,5V8.25L68.85,5ZM68.29,5l5.09,3.66v2.57L64.71,5ZM64.16,5l9.23,6.64v2.58L60.58,5h3.58ZM4.81,5h5.33L4.81,8.82Zm0,4.23L10.7,5h3.58L4.81,11.8Zm0,3L14.83,5h3.58L4.81,14.78Zm5.28,22.6L4.81,38.6c0-.28,0-.44,0-.46V36L7.75,33.9a2.75,2.75,0,0,1-.26-.22L4.82,35.6V33l2.08-1.5a3.19,3.19,0,0,1,.32-.64L4.81,32.61V30l2.27-1.63a2.53,2.53,0,0,1-.33-.16L4.81,29.64V27.07L7.42,25.2a10,10,0,0,0,1.47-1.42s0,0,0,0L4.82,26.67V24.09l3.9-2.8a3.17,3.17,0,0,1,.17-.52L4.83,23.69V21.12l12.94-9.31c0-.11-.06-.23-.09-.34L4.82,20.72V18.15l13-9.37a5.51,5.51,0,0,1,.28-.61L4.82,17.75V15.18L19,5h3.58l-.7.51a5.46,5.46,0,0,1,.57,0h0L23.12,5H26.7l-1.81,1.3.23.16a.1.1,0,0,1,.05,0L27.25,5h3.58L27.11,7.67a1.21,1.21,0,0,1,.2.26L31.39,5H35l-7.16,5.15.19.26L35.53,5h3.58l-9.74,7a1.69,1.69,0,0,1,.13.31l10-7.19,9.77,7a2.64,2.64,0,0,1,.15-.29L39.87,5h3.58l7.34,5.28L51,10,44,5h3.58l3.9,2.8a.81.81,0,0,1,.12-.14l.11-.1L48.15,5h3.58l1.94,1.4L54,6.21,52.28,5h3.58l.67.48a3.84,3.84,0,0,1,.68.09L56.42,5H60l13.37,9.62v2.57l-13-9.36a6.52,6.52,0,0,1,.38.68L73.37,17.6v2.57l-12.3-8.84a2.14,2.14,0,0,1-.09.34l12.38,8.91v2.57l-3.72-2.67a3.48,3.48,0,0,1,.25.58l3.46,2.49v2.58l-3.5-2.52-.06.2.41.46,3.15,2.26V29.1l-1.27-.91a1.92,1.92,0,0,1-.31.18l1.58,1.14v2.57l-2.2-1.58,0,.05a5.13,5.13,0,0,1,.48.73l1.68,1.21v2.58l-2-1.47-.24.23,2.29,1.64V38l-4.53-3.26-.47.07,5,3.6c0,.34,0,1.22,0,2.54L62.58,33.27v.4l10.7,7.7c0,.71-.1,1.52-.2,2.43L61.52,35.48l-.14.08a.91.91,0,0,0-.16.11L73,44.17c-.07.65-.16,1.33-.27,2.06l0,.29L60.08,37.43a1.17,1.17,0,0,1-.3.19l12.88,9.26-.44,2.39L39.45,25,5.91,49.29l-.35-1.9L19,37.7a1.33,1.33,0,0,1-.34-.16L5.5,47l-.14-.75c-.08-.55-.15-1.07-.21-1.57l12.41-8.93a2,2,0,0,0-.28-.2L5.11,44.34c-.1-.89-.17-1.69-.23-2.41l11.18-8V33.5h0L4.85,41.55c-.07-1.09-.09-1.94-.09-2.51l5.78-4.16A2,2,0,0,0,10.09,34.8Z"/><path class="cls-1" d="M39.5,22.57,26.07,32.23c.06.09.13.18.18.27L39.5,23l13.06,9.4a2.53,2.53,0,0,1,.18-.27L39.59,22.64Z"/><path class="cls-1" d="M27.84,16.48,39.5,8.09,51,16.35l.21-.25L39.59,7.76l-.1-.07L27.62,16.23C27.7,16.31,27.77,16.4,27.84,16.48Z"/><path class="cls-1" d="M17.27,15.15,18.85,14l-.13-.18-.06-.09-2,1.45.32,0Z"/><path class="cls-1" d="M20.1,15.69l-.46.33.28.2L20.3,16C20.24,15.86,20.17,15.78,20.1,15.69Z"/><path class="cls-1" d="M39.5,20,54.67,30.91l.42-.1L39.59,19.66l-.1-.07L23.84,30.85c.14,0,.26.08.39.12Z"/><path class="cls-1" d="M49.9,18.15,39.6,10.74l-.1-.07L28.88,18.31c0,.11.07.22.11.32L39.5,11.07l10.29,7.4A3,3,0,0,1,49.9,18.15Z"/><path class="cls-1" d="M27.28,25.81,39.5,17,51,25.27a6.71,6.71,0,0,1-.55-.79L39.59,16.69l-.1-.07L28.07,24.84A7.85,7.85,0,0,1,27.28,25.81Z"/><path class="cls-1" d="M39.5,13.64,29.26,21c0,.14,0,.29,0,.43L39.5,14.05l10,7.18c0-.14,0-.28,0-.42l-9.86-7.09Z"/><path class="cls-1" d="M60,13.88l1.8,1.29c.18,0,.38,0,.6,0l-2.23-1.6-.14.23Z"/><path class="cls-1" d="M58.25,30.49c0-.09-.09-.27-.2-.52l-1-.72-1.13-.56-.73-.37,3.06,2.2Z"/><path class="cls-1" d="M58.62,15.67l-.11.14.42.3.28-.2-.5-.36Z"/><path class="cls-1" d="M6.28,54.76l.1.33c3.46,11.49,11.9,27.32,32.5,37.46l.22.11.22-.11c20.6-10.14,29.05-26,32.51-37.46l.1-.32L39.5,30.15ZM39.1,91.57C19.17,81.68,10.87,66.38,7.42,55.14L39.49,31.36,70.8,55.13C67.34,66.37,59,81.67,39.1,91.57Z"/></g></g></svg>